<?xml version="1.0" standalone="no"?><!DOCTYPE svg PUBLIC "-//W3C//DTD SVG 1.1//EN" "http://www.w3.org/Graphics/SVG/1.1/DTD/svg11.dtd"><svg t="1649149344948" class="icon" viewBox="0 0 1024 1024" version="1.1" xmlns="http://www.w3.org/2000/svg" p-id="4268" xmlns:xlink="http://www.w3.org/1999/xlink" width="48" height="48"><defs><style type="text/css">@font-face { font-family: feedback-iconfont; src: url("//at.alicdn.com/t/font_1031158_u69w8yhxdu.woff2?t=1630033759944") format("woff2"), url("//at.alicdn.com/t/font_1031158_u69w8yhxdu.woff?t=1630033759944") format("woff"), url("//at.alicdn.com/t/font_1031158_u69w8yhxdu.ttf?t=1630033759944") format("truetype"); }
</style></defs><path d="M904 1024H120c-66.168 0-120-53.832-120-120V120C0 53.832 53.832 0 120 0h784c66.168 0 120 53.832 120 120v784c0 66.168-53.832 120-120 120zM120 4C56.038 4 4 56.038 4 120v784c0 63.962 52.038 116 116 116h784c63.962 0 116-52.038 116-116V120c0-63.962-52.038-116-116-116H120z" fill="#ffffff" p-id="4269"></path><path d="M192 538.04c-0.004-3.894 0.602-96.14 63.874-159.332 37.842-37.794 89.124-56.906 152.206-56.708 184.048 0.484 421.484 0.006 423.862 0l0.122 60c-2.376 0.004-239.956 0.48-424.138 0h-0.64c-46.318 0-82.986 13.172-109.01 39.164C253.168 466.208 252 537.256 252 537.96l-60 0.08z" fill="#ffffff" p-id="4270"></path><path d="M614.37 191.252l218.004 130.006-30.732 51.534-218.004-130.006z" fill="#ffffff" p-id="4271"></path><path d="M616.732 701h-0.81c-184.046-0.474-421.484-0.006-423.86 0l-0.124-60c2.378-0.006 239.958-0.474 424.14 0h0.64c46.314 0 82.986-13.174 109.01-39.162C770.832 556.792 772 485.744 772 485.04l60-0.08c0.006 3.896-0.602 96.142-63.874 159.332-37.676 37.63-88.616 56.708-151.394 56.708z" fill="#ffffff" p-id="4272"></path><path d="M222.36 650.238l218.004 130.006-30.732 51.532-218.004-130.006z" fill="#ffffff" p-id="4273"></path></svg>